<svg xmlns="http://www.w3.org/2000/svg" width="760" height="420">
  <defs>
    <filter id="run-shadow" x="-4%" y="-4%" width="108%" height="112%">
      <feDropShadow dx="0" dy="6" stdDeviation="16" flood-color="#000" flood-opacity="0.55"/>
    </filter>
    <clipPath id="run-clip">
      <rect width="760" height="420" rx="10"/>
    </clipPath>
  </defs>

  <g filter="url(#run-shadow)">
    <rect x="8" y="6" width="744" height="408" rx="10" fill="#1e1e1e"/>
  </g>

  <g clip-path="url(#run-clip)" transform="translate(8,6)">
    <!-- Title bar -->
    <rect width="744" height="30" fill="#323232"/>
    <circle cx="20" cy="15" r="6" fill="#ff5f56"/>
    <circle cx="40" cy="15" r="6" fill="#ffbd2e"/>
    <circle cx="60" cy="15" r="6" fill="#27c93f"/>
    <text x="372" y="20" fill="#ababab" font-family="-apple-system,BlinkMacSystemFont,'Segoe UI',sans-serif" font-size="12" text-anchor="middle">my_agent — agent.py — ADK Tools</text>

    <!-- Activity bar -->
    <rect x="0" y="30" width="48" height="370" fill="#333333"/>
    <!-- ADK icon (active) -->
    <rect x="0" y="88" width="48" height="48" fill="#252526"/>
    <rect x="0" y="88" width="3" height="48" fill="#007acc"/>
    <!-- Lightning bolt icon -->
    <path d="M28 100 L20 118 L26 118 L24 136 L32 118 L26 118 Z" fill="#cccccc"/>
    <!-- Explorer icon (dimmed) -->
    <rect x="16" y="42" width="16" height="13" rx="1" fill="#858585" opacity="0.5"/>
    <rect x="16" y="39" width="8" height="5" rx="1" fill="#858585" opacity="0.5"/>

    <!-- Sidebar -->
    <rect x="48" y="30" width="220" height="370" fill="#252526"/>
    <!-- Panel header -->
    <rect x="48" y="30" width="220" height="28" fill="#252526"/>
    <text x="60" y="49" fill="#bdbdbd" font-family="-apple-system,BlinkMacSystemFont,'Segoe UI',sans-serif" font-size="10" font-weight="700" letter-spacing="0.8">ADK PROJECT</text>
    <line x1="48" y1="58" x2="268" y2="58" stroke="#3d3d3d" stroke-width="1"/>

    <!-- Project -->
    <rect x="48" y="58" width="220" height="22" fill="#252526"/>
    <rect x="58" y="67" width="13" height="9" rx="1" fill="#e2a950"/>
    <rect x="58" y="65" width="6" height="4" rx="1" fill="#e2a950"/>
    <text x="76" y="78" fill="#cccccc" font-family="-apple-system,BlinkMacSystemFont,'Segoe UI',sans-serif" font-size="12">my_agent</text>
    <text x="168" y="78" fill="#858585" font-family="-apple-system,BlinkMacSystemFont,'Segoe UI',sans-serif" font-size="10">python · uv</text>

    <!-- Model -->
    <rect x="48" y="80" width="220" height="22" fill="#252526"/>
    <polygon points="64,86 67,91 64,96 61,91" fill="#4ec9b0"/>
    <text x="74" y="96" fill="#4ec9b0" font-family="-apple-system,BlinkMacSystemFont,'Segoe UI',sans-serif" font-size="11">gemini-2.0-flash</text>

    <!-- Development -->
    <rect x="48" y="104" width="220" height="22" fill="#252526"/>
    <text x="57" y="119" fill="#858585" font-family="-apple-system,BlinkMacSystemFont,'Segoe UI',sans-serif" font-size="10">▾</text>
    <text x="70" y="119" fill="#cccccc" font-family="-apple-system,BlinkMacSystemFont,'Segoe UI',sans-serif" font-size="12">Development</text>

    <!-- Web UI running -->
    <rect x="48" y="126" width="220" height="20" fill="#1a2e1a"/>
    <circle cx="70" cy="136" r="4" fill="#4daa4d"/>
    <text x="80" y="141" fill="#4daa4d" font-family="-apple-system,BlinkMacSystemFont,'Segoe UI',sans-serif" font-size="12">Web UI  ●</text>
    <text x="176" y="141" fill="#4daa4d" font-family="-apple-system,BlinkMacSystemFont,'Segoe UI',sans-serif" font-size="10">:8000</text>

    <!-- Other items -->
    <rect x="48" y="146" width="220" height="20" fill="#252526"/>
    <text x="80" y="161" fill="#cccccc" font-family="-apple-system,BlinkMacSystemFont,'Segoe UI',sans-serif" font-size="12">Run API Server</text>
    <rect x="48" y="166" width="220" height="20" fill="#252526"/>
    <text x="80" y="181" fill="#cccccc" font-family="-apple-system,BlinkMacSystemFont,'Segoe UI',sans-serif" font-size="12">Open in Browser</text>
    <rect x="48" y="186" width="220" height="20" fill="#252526"/>
    <text x="80" y="201" fill="#cccccc" font-family="-apple-system,BlinkMacSystemFont,'Segoe UI',sans-serif" font-size="12">Open Agent File</text>

    <!-- Deployment -->
    <line x1="48" y1="208" x2="268" y2="208" stroke="#3d3d3d" stroke-width="0.5"/>
    <rect x="48" y="208" width="220" height="22" fill="#252526"/>
    <text x="57" y="223" fill="#858585" font-family="-apple-system,BlinkMacSystemFont,'Segoe UI',sans-serif" font-size="10">▸</text>
    <text x="70" y="223" fill="#cccccc" font-family="-apple-system,BlinkMacSystemFont,'Segoe UI',sans-serif" font-size="12">Deployment</text>

    <!-- Evaluation -->
    <rect x="48" y="230" width="220" height="22" fill="#252526"/>
    <text x="57" y="245" fill="#858585" font-family="-apple-system,BlinkMacSystemFont,'Segoe UI',sans-serif" font-size="10">▸</text>
    <text x="70" y="245" fill="#cccccc" font-family="-apple-system,BlinkMacSystemFont,'Segoe UI',sans-serif" font-size="12">Evaluation</text>

    <!-- Editor pane -->
    <rect x="268" y="30" width="476" height="348" fill="#1e1e1e"/>

    <!-- Tab bar -->
    <rect x="268" y="30" width="476" height="35" fill="#2d2d2d"/>
    <rect x="268" y="30" width="120" height="35" fill="#1e1e1e"/>
    <rect x="268" y="63" width="120" height="2" fill="#007acc"/>
    <text x="280" y="52" fill="#cccccc" font-family="-apple-system,BlinkMacSystemFont,'Segoe UI',sans-serif" font-size="13">agent.py</text>

    <!-- Line numbers + code -->
    <rect x="268" y="65" width="40" height="313" fill="#1e1e1e"/>
    <!-- Line nums -->
    <text x="300" y="90" fill="#555555" font-family="'SF Mono',Menlo,monospace" font-size="13" text-anchor="end">1</text>
    <text x="300" y="110" fill="#555555" font-family="'SF Mono',Menlo,monospace" font-size="13" text-anchor="end">2</text>
    <text x="300" y="130" fill="#555555" font-family="'SF Mono',Menlo,monospace" font-size="13" text-anchor="end">3</text>
    <text x="300" y="150" fill="#555555" font-family="'SF Mono',Menlo,monospace" font-size="13" text-anchor="end">4</text>
    <text x="300" y="170" fill="#555555" font-family="'SF Mono',Menlo,monospace" font-size="13" text-anchor="end">5</text>
    <text x="300" y="190" fill="#555555" font-family="'SF Mono',Menlo,monospace" font-size="13" text-anchor="end">6</text>
    <text x="300" y="210" fill="#555555" font-family="'SF Mono',Menlo,monospace" font-size="13" text-anchor="end">7</text>
    <text x="300" y="230" fill="#555555" font-family="'SF Mono',Menlo,monospace" font-size="13" text-anchor="end">8</text>
    <text x="300" y="250" fill="#555555" font-family="'SF Mono',Menlo,monospace" font-size="13" text-anchor="end">9</text>
    <text x="300" y="270" fill="#555555" font-family="'SF Mono',Menlo,monospace" font-size="13" text-anchor="end">10</text>
    <text x="300" y="290" fill="#555555" font-family="'SF Mono',Menlo,monospace" font-size="13" text-anchor="end">11</text>
    <text x="300" y="310" fill="#555555" font-family="'SF Mono',Menlo,monospace" font-size="13" text-anchor="end">12</text>
    <text x="300" y="330" fill="#555555" font-family="'SF Mono',Menlo,monospace" font-size="13" text-anchor="end">13</text>

    <!-- Code -->
    <text x="316" y="90" fill="#c586c0" font-family="'SF Mono',Menlo,monospace" font-size="13">from</text>
    <text x="354" y="90" fill="#cccccc" font-family="'SF Mono',Menlo,monospace" font-size="13"> google.adk.agents </text>
    <text x="512" y="90" fill="#c586c0" font-family="'SF Mono',Menlo,monospace" font-size="13">import</text>
    <text x="556" y="90" fill="#4ec9b0" font-family="'SF Mono',Menlo,monospace" font-size="13"> LlmAgent</text>

    <text x="316" y="130" fill="#6a9955" font-family="'SF Mono',Menlo,monospace" font-size="13">def greet(name: str) -&gt; str:</text>
    <text x="316" y="150" fill="#6a9955" font-family="'SF Mono',Menlo,monospace" font-size="13">    """Greet a user by name."""</text>
    <text x="316" y="170" fill="#c586c0" font-family="'SF Mono',Menlo,monospace" font-size="13">    return</text>
    <text x="370" y="170" fill="#ce9178" font-family="'SF Mono',Menlo,monospace" font-size="13"> f'Hello, {"{"}name{"}"}!'</text>

    <text x="316" y="210" fill="#9cdcfe" font-family="'SF Mono',Menlo,monospace" font-size="13">root_agent</text>
    <text x="410" y="210" fill="#cccccc" font-family="'SF Mono',Menlo,monospace" font-size="13"> = </text>
    <text x="432" y="210" fill="#4ec9b0" font-family="'SF Mono',Menlo,monospace" font-size="13">LlmAgent</text>
    <text x="510" y="210" fill="#cccccc" font-family="'SF Mono',Menlo,monospace" font-size="13">(</text>
    <text x="336" y="230" fill="#9cdcfe" font-family="'SF Mono',Menlo,monospace" font-size="13">name</text>
    <text x="376" y="230" fill="#cccccc" font-family="'SF Mono',Menlo,monospace" font-size="13">=</text>
    <text x="390" y="230" fill="#ce9178" font-family="'SF Mono',Menlo,monospace" font-size="13">'my_agent'</text>
    <text x="336" y="250" fill="#9cdcfe" font-family="'SF Mono',Menlo,monospace" font-size="13">model</text>
    <text x="384" y="250" fill="#cccccc" font-family="'SF Mono',Menlo,monospace" font-size="13">=</text>
    <text x="398" y="250" fill="#ce9178" font-family="'SF Mono',Menlo,monospace" font-size="13">'gemini-2.0-flash'</text>
    <text x="336" y="270" fill="#9cdcfe" font-family="'SF Mono',Menlo,monospace" font-size="13">instruction</text>
    <text x="430" y="270" fill="#cccccc" font-family="'SF Mono',Menlo,monospace" font-size="13">=</text>
    <text x="316" y="290" fill="#ce9178" font-family="'SF Mono',Menlo,monospace" font-size="13">    'You are a helpful assistant.'</text>
    <text x="336" y="310" fill="#9cdcfe" font-family="'SF Mono',Menlo,monospace" font-size="13">tools</text>
    <text x="375" y="310" fill="#cccccc" font-family="'SF Mono',Menlo,monospace" font-size="13">=[greet],</text>
    <text x="316" y="330" fill="#cccccc" font-family="'SF Mono',Menlo,monospace" font-size="13">)</text>

    <!-- Terminal panel at bottom of editor -->
    <rect x="268" y="330" width="476" height="48" fill="#1e1e1e"/>
    <line x1="268" y1="330" x2="744" y2="330" stroke="#454545" stroke-width="1"/>
    <rect x="268" y="330" width="476" height="18" fill="#2d2d2d"/>
    <text x="278" y="343" fill="#cccccc" font-family="-apple-system,BlinkMacSystemFont,'Segoe UI',sans-serif" font-size="11">Terminal</text>
    <line x1="278" y1="348" x2="326" y2="348" stroke="#007acc" stroke-width="2"/>
    <text x="278" y="368" fill="#4daa4d" font-family="'SF Mono',Menlo,monospace" font-size="12">▸ ADK Web UI</text>
    <text x="370" y="368" fill="#cccccc" font-family="'SF Mono',Menlo,monospace" font-size="12">adk web</text>
    <text x="424" y="368" fill="#858585" font-family="'SF Mono',Menlo,monospace" font-size="12"> — running on localhost:8000</text>

    <!-- Status bar — running (orange) -->
    <rect y="378" width="744" height="30" fill="#cc6633"/>
    <text x="10" y="398" fill="#ffffff" font-family="-apple-system,BlinkMacSystemFont,'Segoe UI',sans-serif" font-size="13" font-weight="500">⚡ ADK · uv</text>
    <rect x="108" y="382" width="76" height="18" rx="3" fill="#b35520"/>
    <text x="146" y="395" fill="#ffffff" font-family="-apple-system,BlinkMacSystemFont,'Segoe UI',sans-serif" font-size="12" font-weight="600" text-anchor="middle">📡 :8000</text>
    <rect x="188" y="382" width="62" height="18" rx="3" fill="#b35520"/>
    <text x="219" y="395" fill="#ffffff" font-family="-apple-system,BlinkMacSystemFont,'Segoe UI',sans-serif" font-size="12" font-weight="600" text-anchor="middle">■ Stop</text>
    <text x="258" y="396" fill="#e2c08d" font-family="-apple-system,BlinkMacSystemFont,'Segoe UI',sans-serif" font-size="12">↻ hot reload</text>
  </g>
</svg>
